<svg width="24" height="24" viewBox="0 0 24 24" fill="none" xmlns="http://www.w3.org/2000/svg">
<path d="M19.8699 8.59961C19.7954 8.42833 19.6744 8.28134 19.5206 8.17529C19.3668 8.06925 19.1865 8.00839 18.9999 7.99961H14.4199L15.6899 3.25961C15.7303 3.11128 15.736 2.95563 15.7065 2.80474C15.6771 2.65386 15.6132 2.5118 15.5199 2.38961C15.4267 2.2686 15.3071 2.17052 15.1701 2.10292C15.0332 2.03532 14.8826 1.99998 14.7299 1.99961H7.72988C7.50411 1.99188 7.28238 2.06081 7.1008 2.19518C6.91922 2.32955 6.78848 2.52145 6.72988 2.73961L4.04988 12.7396C4.00943 12.8879 4.00373 13.0436 4.03321 13.1945C4.06269 13.3454 4.12657 13.4874 4.21988 13.6096C4.31406 13.732 4.4353 13.8309 4.5741 13.8985C4.71289 13.9662 4.86547 14.0008 5.01988 13.9996H8.88988L7.07988 20.7396C7.02057 20.9569 7.0364 21.1879 7.12478 21.3952C7.21316 21.6024 7.36893 21.7737 7.56684 21.8813C7.76474 21.989 7.9932 22.0266 8.21518 21.9882C8.43716 21.9498 8.63967 21.8375 8.78988 21.6696L19.6899 9.66961C19.8197 9.52749 19.9057 9.35094 19.9376 9.16115C19.9695 8.97135 19.946 8.77637 19.8699 8.59961ZM10.0799 17.2796L11.1499 13.2796C11.1903 13.1313 11.196 12.9756 11.1665 12.8247C11.1371 12.6739 11.0732 12.5318 10.9799 12.4096C10.8867 12.2886 10.7671 12.1905 10.6301 12.1229C10.4932 12.0553 10.3426 12.02 10.1899 12.0196H6.34988L8.48988 3.99961H13.4199L12.1499 8.73961C12.1091 8.89067 12.1043 9.04918 12.136 9.20241C12.1676 9.35564 12.2348 9.49931 12.332 9.62187C12.4293 9.74442 12.554 9.84244 12.696 9.90805C12.8381 9.97366 12.9935 10.005 13.1499 9.99961H16.7199L10.0799 17.2796Z" fill="currentColor"/>
</svg>
